<?xml version="1.0" encoding="UTF-8"?>
<svg id="Layer_1" data-name="Layer 1" xmlns="http://www.w3.org/2000/svg" viewBox="0 0 613.36 613.36">
  <defs>
    <style>
      .cls-1 {
        fill: #2eb8ff;
      }
    </style>
  </defs>
  <path class="cls-1" d="M588.32,271.49c-6.78-55.42-29.58-105.94-63.68-146.75,2.86-4.84,4.54-10.46,4.54-16.49,0-17.93-14.54-32.47-32.47-32.47-6.54,0-12.61,1.95-17.71,5.28-41.21-31.52-91.28-51.98-145.78-56.96-3.7-13.86-16.31-24.09-31.34-24.09s-28.42,10.85-31.66,25.36c-52.48,6.9-100.47,28.19-139.87,59.81-5.25-3.64-11.61-5.79-18.48-5.79-17.93,0-32.47,14.54-32.47,32.47,0,6.95,2.2,13.37,5.92,18.65-31.46,39.7-52.51,87.97-59.01,140.71-14.97,2.89-26.28,16.05-26.28,31.87s10.92,28.51,25.5,31.7c5.42,53.68,25.95,102.93,57.17,143.56-3.59,5.22-5.7,11.55-5.7,18.37,0,17.93,14.54,32.47,32.47,32.47,6.37,0,12.3-1.86,17.31-5.03,39.99,33.16,89.23,55.49,143.2,62.63,2.77,15.12,15.99,26.59,31.91,26.59s28.39-10.83,31.65-25.31c55-5.08,105.46-25.95,146.85-58.02,5.06,3.25,11.07,5.16,17.53,5.16,17.93,0,32.47-14.54,32.47-32.47,0-6.08-1.7-11.74-4.6-16.6,34.76-42.11,57.59-94.4,63.31-151.65,13.96-3.64,24.27-16.29,24.27-31.39s-10.69-28.22-25.04-31.58ZM496.7,140.71c6.65,0,12.83-2.01,17.98-5.44,31.39,38.04,52.45,84.86,59.08,136.13-8.8,1.97-16.22,7.51-20.72,15.02l-82.94-31.1c.08-.91.14-1.83.14-2.76,0-10.96-5.44-20.63-13.76-26.51l36.29-85.6c1.29.16,2.59.26,3.92.26ZM479.18,135.55l-36.05,85.02c-1.75-.29-3.53-.48-5.36-.48-13.93,0-25.78,8.79-30.39,21.12l-150.02-34.55c-.01-2.21-.24-4.38-.68-6.47l212.89-74.13c2.5,3.8,5.78,7.03,9.61,9.49ZM301.87,64.94c15.84,0,29.01-11.34,31.88-26.34,50.42,4.95,96.79,23.89,135.18,52.88-2.96,4.9-4.7,10.62-4.7,16.76,0,1.46.13,2.88.31,4.29l-213.97,74.51c-1.7-2.2-3.68-4.17-5.88-5.88l56.13-116.27c.35.01.69.05,1.04.05ZM270.28,39.89c2.16,9.2,8.2,16.9,16.33,21.24l-55.01,113.95c-2.16-.45-4.4-.7-6.7-.7-6.88,0-13.25,2.15-18.5,5.81l-65.22-54.46c2-4.21,3.15-8.91,3.15-13.88,0-5.82-1.55-11.28-4.24-16,36.8-29.33,81.42-49.2,130.2-55.95ZM64.15,296.02l134.89-69.57c5.88,7.75,15.14,12.78,25.59,12.87l46.23,147.78c-2.8,2.22-5.21,4.9-7.15,7.91l-199.97-83.32c.76-2.75,1.19-5.63,1.19-8.62,0-2.43-.29-4.78-.79-7.06ZM96.02,140.19c4.69,2.62,10.08,4.13,15.83,4.13,7.74,0,14.83-2.71,20.41-7.23l64.4,53.78c-2.68,4.72-4.23,10.17-4.23,15.99,0,2.2.22,4.36.64,6.44l-135.12,69.68c-4.3-5.44-10.29-9.45-17.19-11.27,6.32-49.23,25.98-94.31,55.26-131.52ZM109.44,464.23c-5.87,0-11.37,1.58-16.12,4.31-28.94-38.02-48-83.93-53.3-133.91,6.64-1.58,12.49-5.2,16.85-10.17l201.97,84.15c-.15,1.28-.26,2.58-.26,3.9,0,3.85.71,7.53,1.94,10.96l-122.14,58.52c-5.37-10.54-16.29-17.77-28.93-17.77ZM270.58,572.3c-50.26-6.9-96.16-27.69-133.61-58.44,3.11-4.98,4.94-10.85,4.94-17.16,0-.13-.02-.25-.02-.38l126.46-60.6c3.24,3.17,7.14,5.63,11.47,7.23l7.56,108.9c-8.17,4.08-14.36,11.48-16.81,20.45ZM284.03,380.82l-45.25-144.64c6.76-3.21,12.23-8.67,15.44-15.44l151.23,34.83c.5,5.42,2.33,10.44,5.16,14.76l-103.73,113.85c-4.69-2.63-10.08-4.14-15.84-4.14-2.41,0-4.75.28-7.01.78ZM333.48,573.58c-3.32-14.41-16.2-25.16-31.62-25.16-.08,0-.16.01-.25.01l-7.2-103.62c7.76-.8,14.69-4.34,19.85-9.63l151.2,66.71c0,.28-.04.55-.04.83,0,6.21,1.78,12,4.8,16.94-38.71,29.61-85.65,48.96-136.75,53.93ZM469.12,487.71l-147.27-64.97c1.07-3.22,1.67-6.65,1.67-10.23,0-6.95-2.2-13.38-5.92-18.66l103.42-113.51c4.89,2.96,10.61,4.69,16.75,4.69,1.35,0,2.67-.11,3.98-.27l38.65,190.63c-4.75,3.05-8.66,7.3-11.28,12.33ZM515.71,475.57c-5.11-3.36-11.23-5.33-17.81-5.33-1.28,0-2.53.09-3.77.24l-38.67-190.71c4.18-2.72,7.68-6.39,10.23-10.69l82.87,31.08c-.09.96-.15,1.93-.15,2.91,0,15.75,11.22,28.87,26.09,31.84-5.68,52.99-26.82,101.41-58.8,140.66Z"/>
</svg>
